<svg width="100" height="99" viewBox="0 0 100 99" fill="none" xmlns="http://www.w3.org/2000/svg">
<path d="M50 71.1328C62.1669 71.1328 72.0301 61.4475 72.0301 49.5C72.0301 37.5525 62.1669 27.8672 50 27.8672C37.8331 27.8672 27.9699 37.5525 27.9699 49.5C27.9699 61.4475 37.8331 71.1328 50 71.1328Z" fill="#F5881F"/>
<path fill-rule="evenodd" clip-rule="evenodd" d="M50.0752 0L60.5873 25.6304L85.5218 15.37L75.4374 39.3705L100 49.4249L75.4505 59.6145L85.5219 83.584L60.6035 73.3303L50.0752 99L39.4043 73.3415L14.5132 83.584L24.5794 59.6269L0 49.4249L24.5925 39.3582L14.5132 15.37L39.4206 25.6192L50.0752 0ZM74.6617 49.5C74.6617 62.8334 63.645 73.6866 50 73.6866C36.355 73.6866 25.3383 62.8334 25.3383 49.5C25.3383 36.1666 36.355 25.3134 50 25.3134C63.645 25.3134 74.6617 36.1666 74.6617 49.5Z" fill="#F5881F"/>
</svg>
