<svg width="107" height="71" viewBox="0 0 107 71" fill="none" xmlns="http://www.w3.org/2000/svg">
<path d="M84.6772 25.6028L86.179 16.5102L79.451 9.75059L88.9423 8.43456L93.1473 0L97.3523 8.43456L106.723 9.75059L100.176 16.5102L101.557 25.6028L93.1473 21.4752L84.9775 25.6028H84.6772Z" fill="#F5881F"/>
<path d="M0 61.853C5.31424 67.3053 12.3539 70.549 22.2922 70.549C32.9897 70.549 42.0999 64.7517 42.0999 54.3302V54.1922C42.0999 46.6004 37.4068 42.3904 30.1601 40.458L40.9956 32.3141V21.2025H3.8649V33.7634H21.8091L11.1806 42.1834L13.3201 49.3611H20.1527C24.4317 49.3611 26.5022 50.8794 26.5022 53.226V53.364C26.5022 55.6415 24.5698 57.2289 20.9809 57.2289C16.978 57.2289 13.1821 55.3655 9.59325 51.9837L0 61.853Z" fill="#F5881F"/>
<path fill-rule="evenodd" clip-rule="evenodd" d="M44.936 45.4962C44.936 58.8163 53.494 70.549 68.1254 70.549C82.7568 70.549 91.4529 58.6783 91.4529 45.3581V45.2201C91.4529 31.9 82.8949 20.1672 68.2635 20.1672C53.632 20.1672 44.936 32.038 44.936 45.3581V45.4962ZM75.4411 45.4962C75.4411 52.1217 72.6115 56.5388 68.2635 56.5388C63.9154 56.5388 60.9477 51.9837 60.9477 45.3581V45.2201C60.9477 38.5946 63.7774 34.1775 68.1254 34.1775C72.4734 34.1775 75.4411 38.7326 75.4411 45.3581V45.4962Z" fill="#F5881F"/>
</svg>
