<svg width="400" height="512" viewBox="0 0 400 512" fill="none" xmlns="http://www.w3.org/2000/svg">
<path d="M129.073 459.231C129.073 455.345 132.431 452.195 136.572 452.195H264.054C268.196 452.195 271.553 455.345 271.553 459.231C271.553 463.117 268.196 466.267 264.054 466.267H136.572C132.431 466.267 129.073 463.117 129.073 459.231Z" fill="#E5B904"/>
<path d="M147.821 483.857C147.821 479.971 151.178 476.821 155.32 476.821H245.307C249.449 476.821 252.806 479.971 252.806 483.857C252.806 487.742 249.449 490.892 245.307 490.892H155.32C151.178 490.892 147.821 487.742 147.821 483.857Z" fill="#EE7C18"/>
<path d="M129.073 434.605C129.073 430.72 132.431 427.57 136.572 427.57H264.054C268.196 427.57 271.553 430.72 271.553 434.605C271.553 438.491 268.196 441.641 264.054 441.641H136.572C132.431 441.641 129.073 438.491 129.073 434.605Z" fill="#EE7C18"/>
<path d="M166.568 506.723C166.568 503.809 169.086 501.446 172.192 501.446H228.434C231.541 501.446 234.059 503.809 234.059 506.723C234.059 509.637 231.541 512 228.434 512H172.192C169.086 512 166.568 509.637 166.568 506.723Z" fill="#EAE779"/>
<path d="M201.253 392.324L241.51 320.933L229.595 322.697C208.898 325.76 187.885 326.488 167.004 324.863L155.411 323.961L201.253 392.324Z" fill="#F5881F"/>
<path d="M335.75 333.013L313.513 254.987L305.306 264.687C292.844 279.415 278.625 292.756 262.927 304.448L252.588 312.149L335.75 333.013Z" fill="#F5881F"/>
<path d="M400 213.295L332.036 163.725V170.788C332.036 193.726 328.62 216.552 321.887 238.604L320.297 243.811L400 213.295Z" fill="#F5881F"/>
<path d="M367.001 79.7679L281.028 83.866L290.756 95.1036C302.914 109.147 313.384 124.404 321.979 140.6L327.876 151.712L367.001 79.7679Z" fill="url(#paint0_linear_93_38)"/>
<path d="M104.507 11.6785L96.3353 92.0815L98.1698 90.9404C120.842 76.8372 145.713 66.1266 171.893 59.1924L174.687 58.4525L104.507 11.6785Z" fill="url(#paint1_linear_93_38)"/>
<path d="M248.004 0L186.979 56.9656L203.626 59.575C220.127 62.1615 236.326 66.2223 252.003 71.7019L270.158 78.0474L248.004 0Z" fill="url(#paint2_linear_93_38)"/>
<path d="M86.0526 97.9515C67.4551 118.114 53.6717 141.777 45.6284 167.351L45.11 168.999L0 100.125L86.0526 97.9515Z" fill="#F5881F"/>
<path d="M309.048 190.109C309.048 251.311 256.169 300.924 190.94 300.924C125.71 300.924 72.8312 251.311 72.8312 190.109C72.8312 128.908 125.71 79.2944 190.94 79.2944C256.169 79.2944 309.048 128.908 309.048 190.109Z" fill="#F5881F"/>
<path d="M194.689 204.181L125.324 167.243L189.065 183.073L194.689 167.243L256.556 212.976L194.689 193.627V204.181Z" fill="#EAE779"/>
<defs>
<linearGradient id="paint0_linear_93_38" x1="310.398" y1="245.777" x2="-288.181" y2="348.425" gradientUnits="userSpaceOnUse">
<stop stop-color="#F5881F"/>
<stop offset="1" stop-color="#FAFF00"/>
</linearGradient>
<linearGradient id="paint1_linear_93_38" x1="121.323" y1="236.836" x2="628.101" y2="345.64" gradientUnits="userSpaceOnUse">
<stop stop-color="#F5881F"/>
<stop offset="1" stop-color="#FAFF00"/>
</linearGradient>
<linearGradient id="paint2_linear_93_38" x1="200.002" y1="1.68856e-05" x2="-470.82" y2="574.281" gradientUnits="userSpaceOnUse">
<stop stop-color="#F5881F"/>
<stop offset="1" stop-color="#FAFF00"/>
</linearGradient>
</defs>
</svg>
